<svg id="Capa_1" enable-background="new 0 0 480 480" height="512" viewBox="0 0 480 480" width="512" xmlns="http://www.w3.org/2000/svg"><g><g id="Out_line_30_"><circle cx="184" cy="96" r="8"/><circle cx="328" cy="256.002" r="4"/><circle cx="294" cy="270" r="4"/><path d="m323.728 278.55c-.801-2.059-3.119-3.078-5.178-2.277-4.197 1.632-7.486.963-8.587-1.746-.917-2.254.025-5.329 3.598-6.844 2.036-.858 2.99-3.204 2.132-5.24-.858-2.035-3.204-2.99-5.24-2.132-.005.002-.01.004-.014.006-8.248 3.496-10.22 11.482-7.888 17.221 1.999 4.756 6.727 7.785 11.883 7.612 2.407-.034 4.786-.517 7.016-1.423 2.059-.8 3.079-3.118 2.278-5.177z"/><path d="m346.144 269.414c-4.675-1.454-10.104.243-14.89 4.667-.039.036-.076.072-.113.109-4.083 4.083-6.789 8.046-8.044 11.78-1.412 4.201-.819 8.013 1.625 10.457 1.719 1.647 4.031 2.529 6.41 2.446 4.592 0 10.624-2.658 17.306-9.32 3.954-3.66 5.664-8.24 4.694-12.579-.79-3.598-3.463-6.49-6.988-7.56zm-3.182 14.306c-.042.038-.083.078-.125.119-6.936 6.936-11.741 7.399-12.429 6.971-.266-.484-.228-4.325 6.331-10.905 2.571-2.356 5.194-3.423 7.021-2.853.791.222 1.393.865 1.562 1.669.33 1.471-.552 3.341-2.36 4.999z"/><path d="m316.903 249.588 13.734-5.409c1.453-.572 2.168-2.215 1.595-3.668-.275-.698-.816-1.258-1.504-1.557l-1.74-.757c-3-1.305-6.492-.651-8.817 1.649l-5.847 5.786c-.946.936-.954 2.462-.018 3.409.679.685 1.7.9 2.597.547z"/><path d="m256.003 208.01c.867.001 1.71-.282 2.402-.804 2.762-2.089 6.132-3.215 9.595-3.206 1.076 0 2.149.108 3.204.321 2.165.44 4.276-.959 4.716-3.124s-.959-4.276-3.124-4.716c-1.579-.32-3.186-.481-4.796-.481-5.199-.014-10.259 1.677-14.405 4.813-1.765 1.328-2.12 3.836-.792 5.601.757 1.006 1.942 1.597 3.2 1.596z"/><path d="m248.397 228.001c2.212-.002 4.005-1.796 4.003-4.009 0-.266-.027-.531-.079-.791-.428-2.113-.428-4.29 0-6.402.441-2.165-.956-4.277-3.121-4.718s-4.277.956-4.718 3.121c-.643 3.167-.643 6.431 0 9.598.38 1.86 2.016 3.198 3.915 3.201z"/><path d="m136 348c11.046 0 20-8.954 20-20s-8.954-20-20-20-20 8.954-20 20c.012 11.041 8.959 19.988 20 20zm0-32c6.627 0 12 5.373 12 12s-5.373 12-12 12-12-5.373-12-12c.007-6.624 5.376-11.993 12-12z"/><path d="m127.373 430.531 19.089-57.267c.701-2.095-.428-4.362-2.523-5.063s-4.362.428-5.063 2.523c-.001.004-.002.007-.004.011l-19.089 57.267c-1.882 5.694-1.407 11.905 1.32 17.246 1.009 1.965 3.42 2.74 5.385 1.731s2.74-3.42 1.731-5.385c-1.749-3.427-2.053-7.41-.846-11.063z"/><path d="m48.001 133.986c.513 0 1.022-.099 1.498-.292l8-3.233c2.048-.828 3.038-3.16 2.21-5.208s-3.16-3.038-5.208-2.21l-8 3.233c-2.048.828-3.038 3.161-2.209 5.209.611 1.512 2.079 2.502 3.709 2.501z"/><path d="m24.002 161.683c.548 0 1.091-.113 1.593-.333l13.352-5.806c2.027-.879 2.957-3.235 2.078-5.261-.879-2.027-3.235-2.957-5.261-2.078-.002.001-.005.002-.007.003l-13.352 5.806c-2.026.881-2.954 3.238-2.073 5.264.636 1.461 2.077 2.405 3.67 2.405z"/><path d="m48.683 142.588c-2.027.877-2.96 3.232-2.083 5.259s3.232 2.96 5.259 2.083c.004-.002.009-.004.013-.006l11.098-4.825c2.026-.881 2.954-3.237 2.073-5.263s-3.237-2.954-5.263-2.073z"/><path d="m35.625 170.571c-.935-2.002-3.314-2.867-5.316-1.934l-6.66 3.107c-2.002.934-2.868 3.314-1.934 5.316s3.314 2.868 5.316 1.934l6.66-3.107c2.002-.934 2.868-3.314 1.934-5.316z"/><path d="m41.049 168.041c.932 2.001 3.311 2.868 5.312 1.936.001-.001.003-.001.004-.002l18.816-8.779c2.002-.934 2.868-3.314 1.934-5.316s-3.314-2.868-5.316-1.934l-18.816 8.779c-2.002.934-2.868 3.314-1.934 5.316z"/><path d="m48.912 182.212c-.987-1.976-3.39-2.778-5.366-1.79 0 0 0 0-.001 0l-13.604 6.8c-1.978.985-2.782 3.386-1.798 5.364.985 1.978 3.386 2.782 5.364 1.798.004-.002.007-.004.011-.005l13.604-6.8c1.976-.989 2.777-3.391 1.79-5.367z"/><path d="m54.211 175.09c-1.978.985-2.782 3.386-1.798 5.364s3.386 2.782 5.364 1.798c.004-.002.007-.004.011-.005l12.86-6.428c1.975-.99 2.773-3.394 1.783-5.369-.988-1.972-3.386-2.771-5.36-1.787z"/><path d="m60.473 194.194c1.04 1.947 3.462 2.682 5.409 1.641.002-.001.004-.002.005-.003l12.4-6.637c1.948-1.043 2.681-3.467 1.639-5.414s-3.467-2.681-5.414-1.639l-12.4 6.637c-1.947 1.043-2.681 3.467-1.639 5.415z"/><path d="m438.502 124.161 12 4.848c2.048.827 4.38-.163 5.207-2.211s-.163-4.38-2.211-5.207l-12-4.848c-2.048-.827-4.38.163-5.207 2.211-.827 2.049.163 4.38 2.211 5.207z"/><path d="m409.895 129.468 8.51 3.702c2.026.881 4.382-.047 5.264-2.072s-.047-4.382-2.072-5.264l-8.51-3.702c-2.026-.881-4.382.046-5.264 2.072s.046 4.382 2.072 5.264z"/><path d="m430.404 138.39 18.64 8.108c2.026.881 4.382-.047 5.264-2.072s-.047-4.382-2.072-5.264l-18.64-8.108c-2.026-.881-4.382.047-5.264 2.072s.047 4.382 2.072 5.264z"/><path d="m406.809 145.195 15.484 7.223c1.999.94 4.382.082 5.322-1.917s.082-4.382-1.917-5.322c-.008-.004-.016-.007-.024-.011l-15.484-7.223c-1.999-.94-4.382-.082-5.322 1.917s-.082 4.382 1.917 5.322c.008.004.016.008.024.011z"/><path d="m448.351 155.745-11.338-5.289c-1.999-.94-4.382-.082-5.322 1.917s-.082 4.382 1.917 5.322c.008.004.016.007.024.011l11.338 5.289c1.999.94 4.382.082 5.322-1.917s.082-4.382-1.917-5.322c-.008-.004-.016-.007-.024-.011z"/><path d="m401.352 159.818 6.262 3.13c1.977.985 4.379.181 5.365-1.796.984-1.974.184-4.372-1.787-5.36l-6.262-3.13c-1.977-.985-4.379-.181-5.365 1.796-.985 1.974-.185 4.372 1.787 5.36z"/><path d="m442.059 171.222-18.57-9.282c-1.977-.985-4.379-.181-5.365 1.796-.984 1.974-.184 4.372 1.787 5.36l18.57 9.282c1.977.985 4.379.181 5.365-1.796.984-1.974.184-4.372-1.787-5.36z"/><path d="m433.567 185.454-15.783-8.445c-1.948-1.042-4.371-.308-5.414 1.639s-.308 4.371 1.639 5.414l15.783 8.445c1.948 1.042 4.371.308 5.414-1.639s.309-4.372-1.639-5.414z"/><path d="m184 172c41.974 0 76-34.026 76-76s-34.026-76-76-76-76 34.026-76 76c.047 41.954 34.046 75.953 76 76zm0-144c37.555 0 68 30.445 68 68s-30.445 68-68 68-68-30.445-68-68c.043-37.538 30.462-67.957 68-68z"/><path d="m164 96c.016 10.109 7.565 18.62 17.6 19.842l2.523 4.369c-2.364 3.918-1.103 9.01 2.815 11.374.197.119.399.229.605.331l12.928 6.392c4.1 2.027 9.067.347 11.094-3.753.484-.98.77-2.046.841-3.137l.93-14.393c.011-.18.017-.358.017-.537-.004-4.576-3.717-8.283-8.293-8.279-.05 0-.101.001-.151.002l-2.516-4.358c3.624-8.474.985-18.327-6.39-23.854v-21.026c4.006-2.212 5.461-7.253 3.248-11.259-.112-.202-.232-.4-.36-.592l-7.998-11.997c-2.534-3.805-7.674-4.836-11.479-2.301-.911.607-1.692 1.388-2.299 2.298l-8 12c-2.543 3.789-1.533 8.921 2.256 11.464.205.138.416.266.632.385v21.028c-5.031 3.784-7.993 9.708-8.003 16.001zm33.247 14.944 2.217 3.841c1.104 1.913 3.551 2.569 5.464 1.464.134-.078.306-.033.384.102.028.048.041.104.038.16l-.929 14.393c.001.096-.054.183-.14.225-.08.053-.183.056-.266.009l-12.928-6.392c-.1-.038-.164-.137-.156-.243-.017-.107.041-.211.141-.253 1.913-1.105 2.568-3.551 1.464-5.464l-2.21-3.827c2.554-.859 4.908-2.224 6.921-4.015zm-19.247-25.34c1.238-.714 2-2.035 2-3.464v-26.14c0-2.209-1.791-4-4-4-.158-.004-.286-.132-.29-.29.003-.055.023-.108.058-.151l8.002-12.003c.087-.127.261-.159.388-.072.029.02.054.046.074.075l8 12c.069.084.075.203.016.294-.041.099-.141.159-.248.147-2.209 0-4 1.791-4 4v26.141c0 1.429.762 2.75 2 3.464 5.74 3.314 7.706 10.653 4.392 16.392s-10.653 7.706-16.392 4.392c-5.74-3.314-7.706-10.653-4.392-16.392 1.053-1.824 2.568-3.339 4.392-4.393z"/><path d="m42.61 228.894c3.258-.005 6.459-.859 9.287-2.478l37.574-21.471c8.955-5.118 12.065-16.526 6.947-25.481-.384-.672-.809-1.319-1.273-1.938-9.8-13.123-15.11-29.055-15.145-45.434v-12.688c-.001-10.315-8.363-18.676-18.677-18.675-2.239 0-4.459.403-6.556 1.189l-42.649 15.993c-7.273 2.754-12.093 9.71-12.118 17.487v6.508c.037 29.059 9.925 57.247 28.049 79.961 3.526 4.443 8.889 7.031 14.561 7.027zm-30.61-93.496c.009-2.78 1.732-5.266 4.332-6.251l42.647-15.992c3.451-1.296 7.3.452 8.596 3.903.282.75.426 1.545.426 2.346v12.688c.04 18.974 6.191 37.43 17.544 52.633 2.212 2.949 1.615 7.134-1.334 9.346-.221.166-.453.318-.693.455l-37.574 21.47c-1.014.584-2.163.893-3.333.896-2.025-.004-3.936-.933-5.19-2.522-16.427-20.584-25.388-46.129-25.421-72.464z"/><path d="m382.456 188.902 37.703 21.545c7.97 4.579 18.092 2.631 23.792-4.58 18.125-22.714 28.013-50.902 28.049-79.961v-6.561c-.026-7.745-4.826-14.672-12.069-17.416l-42.802-16.05c-9.618-3.607-20.339 1.266-23.945 10.884-.783 2.089-1.184 4.301-1.184 6.532v12.712c-.034 16.434-5.363 32.419-15.196 45.586-6.163 8.218-4.497 19.877 3.721 26.04.617.463 1.262.887 1.931 1.269zm3.948-20.109c11.386-15.246 17.556-33.756 17.596-52.785v-12.712c0-3.645 2.956-6.6 6.601-6.6.791 0 1.575.142 2.316.42l42.799 16.049c2.57.974 4.274 3.432 4.284 6.181v6.561c-.033 26.335-8.994 51.88-25.42 72.465-2.009 2.596-5.628 3.305-8.467 1.658l-37.703-21.546c-3.165-1.809-4.264-5.841-2.455-9.006.135-.238.285-.467.449-.685z"/><path d="m184 192c53.019 0 96-42.981 96-96s-42.981-96-96-96-96 42.981-96 96c.06 52.994 43.006 95.94 96 96zm0-180c46.392 0 84 37.608 84 84s-37.608 84-84 84-84-37.608-84-84c.053-46.37 37.63-83.947 84-84z"/><path d="m464 448h-16c-.005-3.505-1.165-6.91-3.3-9.69 4.415-2.941 8.34-6.559 11.63-10.72 8.33-10.68 10.9-23.66 7.43-37.54-15.01-59.91-51.84-67.23-76.21-72.08-11.66-2.31-18.37-3.84-19.84-8.15-1.93-7.95.64-10.17 6.81-15.49 13.29-11.47 23.97-25.07 9.04-64.97-9.31-28.45-14.6-45.18-28.01-51.95-4.088-2.091-8.731-2.843-13.27-2.15-11.73-9.76-26.18-12.17-41.01-6.78-6.525 2.463-12.638 5.902-18.13 10.2-4.848-1.784-9.974-2.691-15.14-2.68-24.297-.003-43.997 19.691-44 43.988-.001 4.062.561 8.105 1.67 12.012h-193.67c-13.248.018-23.982 10.752-24 24v144c.018 13.248 10.752 23.982 24 24h58.23c-1.445 3.611-2.201 7.461-2.23 11.35.002 4.387 1.011 8.715 2.95 12.65h-74.95c-8.837 0-16 7.163-16 16s7.163 16 16 16h448c8.837 0 16-7.163 16-16s-7.163-16-16-16zm-68.12-96.97-5.04-20.14c22.82 4.81 49.14 13.59 61.28 62.08 2.58 10.31.81 19.48-5.25 27.24-5.4 6.92-13.47 11.67-20.9 14.05 1.473-3.213 2.168-6.728 2.03-10.26 0-8.72-7.05-23.38-21.1-27.11.443-.696.824-1.428 1.14-2.19 2.77-6.69.58-15.74-5.21-21.53-1.568-1.558-4.102-1.55-5.66.017-1.551 1.561-1.551 4.082 0 5.643 3.54 3.54 5.04 9.05 3.48 12.8-1.2 2.9-4.11 4.37-8.65 4.37-12.5 0-23.97 2.26-33.89 12.4-5.14 5.45-8.29 10.07-10.11 13.95v-12.69l30.83-30.83c.75-.751 1.17-1.769 1.17-2.83v-13.53l13.79-6.89c1.68-.837 2.549-2.731 2.09-4.55zm-10.7 66c-1.639-1.478-4.165-1.352-5.65.28-5.73 6.33-7.92 11.8-7.99 16.09-1.64 1.48-3.41 1.68-4.17.96-1.02-.97-1.23-5.09 4.65-11.7 1.465-1.657 1.31-4.189-.348-5.654-1.652-1.461-4.174-1.311-5.642.334-5.25 5.92-7.2 11.08-7.22 15.16-.609.662-1.47 1.036-2.37 1.03-.956.083-1.865-.429-2.29-1.29-1.1-2.521.81-8.83 9.73-18.3 9.72-9.94 20.22-9.94 36.12-9.94 5.857.046 11.359 2.819 14.88 7.5 2.035 2.554 3.556 5.478 4.48 8.61-12.45.67-15.03 4.4-19.65 13.45-.32.63-.65 1.28-1.01 1.98-.471 1.138-1.578 1.883-2.81 1.89-1.021-.033-1.925-.67-2.3-1.62-.96-2.24-.02-6.87 5.52-13.17 1.458-1.66 1.295-4.187-.365-5.645s-4.187-1.295-5.645.365c-6.71 7.64-8.1 13.59-7.81 17.63-2.54 1.33-4.55 1.09-5.26.33-1.18-1.27-.75-5.82 5.43-12.64 1.482-1.638 1.357-4.167-.28-5.65zm-12.48 34.97h-108.7c-2.209 0-4-1.791-4-4s1.791-4 4-4h108.7c-.933 2.585-.933 5.415 0 8zm-119.37-16.87c-2.209-3.11-4.899-5.848-7.97-8.11-1.736-1.321-4.215-.984-5.536.753-.108.142-.206.292-.294.447-2.436 4.687-6.11 6.45-8.7 5.47-2.27-.85-3.4-3.49-2.88-6.73.82-5.13 5.14-6.97 14.94-6.97 11.9 0 16.14 9.54 16.89 16.79-4.114 1.557-7.051 5.234-7.66 9.59-1.09.88-4.12 2.35-5.64-.19-.73-1.74.88-4.27 4.19-4.78 2.18-.322 3.686-2.351 3.363-4.53-.093-.628-.334-1.224-.703-1.74zm-60.34 2.61c-.96-.353-1.776-1.015-2.32-1.88-4.13-6.69 8.29-15.86 17.33-15.86h14.05l-.03.06c-12.023.672-22.916 7.306-29.03 17.68zm24.37-8.94c-3.01 7.393-4.781 15.231-5.24 23.2h-15.81c1.641-11.297 9.966-20.471 21.05-23.2zm5.44 8.59c1.362 1.711 3.163 3.021 5.21 3.79 3.963 1.411 8.36.858 11.85-1.49-1.525 2.765-1.871 6.027-.96 9.05.427 1.224 1.12 2.337 2.03 3.26h-20.79c.318-4.956 1.211-9.859 2.66-14.61zm31.05-22.98c3.932-3.762 6.154-8.968 6.15-14.41v-24.29c9.341-13.497 21.054-25.186 34.57-34.5l-2.45 9.82c-.459 1.819.41 3.713 2.09 4.55l13.79 6.89v13.53c0 1.061.42 2.079 1.17 2.83l30.7 30.69.07 26.48h-54.63c9.86-12.39 14.69-29.5 14.69-52 0-2.209-1.791-4-4-4s-4 1.791-4 4c0 23.93-5.76 40.95-17.55 52h-6.72c-1.16-8.87-6.12-17.52-13.88-21.59zm74.15-76.07-6.24-6.24-1.94-4.35c2.954-1.12 5.968-2.072 9.03-2.85l8.4 4.2zm7.76 6.13-3.06 12.25-3.91-8.8c.772-.155 1.482-.534 2.04-1.09l4.07-4.08zm4.06 47.97.01 5.74-23.83-23.84v-14.34c-.004-1.514-.858-2.898-2.21-3.58l-13.13-6.56 3.69-14.77c2.81-1.59 5.513-2.993 8.11-4.21zm3.3-44.44h1.76l5.15 20.59-6.03 13.56-6.03-13.56zm-2.25-11.21 3.13-3.13 3.13 3.13-1.6 3.21h-3.06zm-76.87 14.94v-87.49c9.18 24.61 16.62 37.43 26.04 45.13 6.02 4.92 12.65 7.6 20.8 9.03-17.695 7.848-33.626 19.184-46.84 33.33zm155.76 76.33c-.66 3.65-3.1 6.88-12.2 7.72 3.06-5.92 4.36-7.42 12.2-7.72zm-35.76 15.94h6.7c3.256 1.915 7.294 1.915 10.55 0h30.75c2.209 0 4 1.791 4 4s-1.791 4-4 4h-48c-2.209 0-4-1.791-4-4s1.791-4 4-4zm-1.84-114.87 5.18 20.73-13.13 6.56c-1.352.682-2.206 2.066-2.21 3.58v14.34l-24 24v-5.49l28.84-64.88c1.72.41 3.49.79 5.32 1.16zm-29.92 15.34.86-1.72 4.07 4.08c.558.556 1.268.935 2.04 1.09l-3.91 8.8zm16.86-18.8-2.85 6.43-6.25 6.24-9.25-9.24 12.62-6.31c1.794 1.175 3.717 2.141 5.73 2.88zm8.1-76.21c5.07 22.31-2.7 29.165-11.37 36.52.7-1.35 1.45-2.66 2.21-3.98 3.76-6.53 7.64-13.27 4.45-24.96 1.965-2.259 3.555-4.818 4.71-7.58zm-12.03 3.71c-1.069 1.071-1.44 2.655-.96 4.09 3.24 9.73.58 14.35-3.1 20.75-4.27 7.41-9.57 16.63-4.99 34.96.373 1.297.896 2.545 1.56 3.72l-13.68 6.84-8.12-4.06c.694-1.075 1.223-2.248 1.57-3.479 2.12.01 4.28.01 6.55.01 2.209 0 4-1.791 4-4s-1.791-4-4-4c-21.5 0-34.48 0-44.08-6.34-8.83-5.83-15.75-17.46-24.91-42.22 1.872-.339 3.717-.813 5.52-1.42l-.36.85c-.303.685-.317 1.464-.04 2.16.568 1.454 2.206 2.172 3.66 1.604.003-.001.007-.003.01-.004l13.73-5.41c1.24-.488 1.849-1.889 1.361-3.128 0-.001 0-.001-.001-.002-.35-.899-1.206-1.498-2.17-1.52l-4.72-.14c5.569-3.704 10.885-7.776 15.91-12.19 7.48-6.3 14.55-12.24 20.09-12.24 5.03 0 7.84 3.1 11.86 8.22 4.37 5.55 10.35 13.15 21.93 7.36 1.98-.996 2.777-3.408 1.781-5.388-.147-.292-.329-.564-.541-.812-1.19-1.38-3.5-5.01-3.09-7.44.1-.61.43-1.53 2.07-2.48 1.76-1.02 4.3.78 5.92 2.88 4.2 5.469 5.13 14.939-2.76 22.829zm-97.17-65.17c10.689-.004 20.673 5.331 26.61 14.22 1.231 1.833 3.715 2.321 5.548 1.089 1.826-1.226 2.318-3.697 1.102-5.529-2.666-3.986-6.026-7.462-9.92-10.26 11.58-8.57 29.81-16.72 45.83-.69 1.073 1.073 2.662 1.445 4.1.96 2.873-1.134 6.089-1.014 8.87.33 7.86 3.97 13.23 18.15 17.84 32.16-3.166-1.581-6.911-1.484-9.99.26-3.131 1.638-5.327 4.632-5.95 8.11-.381 3.095.206 6.232 1.68 8.98-2.54-.19-4.43-2.38-7.57-6.36-3.95-5.02-8.87-11.27-18.15-11.27-8.45 0-16.23 6.54-25.24 14.11-10.13 8.52-21.64 18.17-34.76 17.89-2.945.001-5.877-.406-8.71-1.21-2.333-8.604-10.077-14.626-18.99-14.77-8.849-15.297-3.621-34.871 11.677-43.72 4.87-2.817 10.397-4.3 16.023-4.3zm-236 224c-6.625-.005-11.995-5.375-12-12v-144c.005-6.625 5.375-11.995 12-12h208c6.625.005 11.995 5.375 12 12v144c-.005 6.625-5.375 11.995-12 12h-90.45l12.1-36.31c2.616-7.834-1.614-16.304-9.448-18.92-1.529-.511-3.13-.77-4.742-.77h-21.69c-5.169-.005-9.76 3.304-11.39 8.21l-15.93 47.79zm105.36 27.02c2.247 3.141 5.878 4.997 9.74 4.98h12.9c2.209 0 4 1.791 4 4s-1.791 4-4 4h-43.35c-9.199-.004-16.654-7.465-16.65-16.664.001-1.783.288-3.554.85-5.246l21.12-63.36c.548-1.632 2.078-2.732 3.8-2.73h21.69c3.844.002 6.959 3.119 6.957 6.963 0 .747-.121 1.489-.357 2.197l-18.35 55.05c-1.237 3.658-.622 7.688 1.65 10.81zm22.64-7.02h-12.9l2.67-8h31.4c-4.55 8.62-4.14 17.16 3.85 22.99-.07.34-.15.67-.22 1.01h-8.8c-.012-8.832-7.168-15.988-16-16zm304 36h-448c-2.209 0-4-1.791-4-4s1.791-4 4-4h448c2.209 0 4 1.791 4 4s-1.791 4-4 4z"/></g></g></svg>